<svg width="512" height="512" viewBox="0 0 512 512" fill="none" xmlns="http://www.w3.org/2000/svg">
<path d="M339.875 228.256C328.045 195.68 343.039 142.928 343.039 142.928C343.039 142.928 291.951 170.928 254.427 170.672C217.003 170.416 169.147 142.928 169.147 142.928C169.147 142.928 181.767 195.424 170.728 229.088C159.942 262.832 115.333 300.336 115.333 300.336C115.333 300.336 173.185 305.248 201.657 323.84C230.229 342.416 255.992 397.68 255.992 397.68C255.992 397.68 273.526 347.52 308.055 324.928C342.584 302.096 396.919 300.352 396.919 300.352C396.919 300.352 352.041 261.104 339.858 228.512L339.875 228.256ZM295.014 307.008C270.564 324.256 255.756 353.68 255.756 353.68C255.756 353.68 238.761 323.184 215.438 306.352C191.863 289.52 157.771 285.68 157.771 285.68C173.999 272.248 185.881 254.708 192.032 235.104C202.38 202.272 196.07 176.848 196.07 176.848C196.07 176.848 216.751 191.76 254.881 191.76C293.011 191.76 317.461 176.848 317.461 176.848C317.461 176.848 308.963 210.592 319.043 234.432C328.954 258.768 354.279 285.856 354.279 285.856C354.279 285.856 319.312 289.52 295.031 307.024L295.014 307.008ZM294.829 204.832C294.829 204.832 273.525 212.912 255.133 212.672C236.724 212.672 217.003 204.832 217.003 204.832C218.063 217.168 217.003 229.328 213.15 241.088C207.109 259.424 192.721 276.08 192.721 276.08C205.849 278.57 218.274 283.674 229.178 291.056C240.083 298.439 249.221 307.932 255.992 318.912C255.992 318.912 266.071 300.832 282.461 290.576C293.768 283.854 306.095 278.824 319.009 275.664C319.009 275.664 302.451 258.992 296.141 242.16C289.915 225.488 294.829 204.832 294.829 204.832V204.832ZM437.775 256L512 177.088L403.145 154.256L414.369 48.832L312.093 91.504L256.008 0L199.923 91.504L97.8163 48.832L108.855 154.416L0 176.832L74.0563 256L0.269234 334.912L109.04 357.744L97.8163 463.168L199.923 420.496L256.008 512L312.093 420.496L414.369 463.168L403.145 357.744L512 335.168L437.944 256H437.775ZM319.464 340.256C300.886 353.264 256.008 443.92 256.008 443.92C256.008 443.92 222.354 361.584 188.7 340.256C155.483 318.928 68.0154 314.256 68.0154 314.256C68.0154 314.256 135.055 263.68 148.113 218.928C161.339 174.096 139.783 104.352 139.783 104.352C139.783 104.352 204.82 149.104 253.72 149.104C302.451 149.104 371.779 104.352 371.779 104.352C371.779 104.352 353.37 200.352 359.866 220.848C366.613 241.264 443.564 314.272 443.564 314.272C443.564 314.272 338.125 327.52 319.295 340.272L319.464 340.256Z" fill="black"/>
</svg>
