<svg width="20" height="20" viewBox="0 0 20 20" fill="none" xmlns="http://www.w3.org/2000/svg">
<path d="M13.2764 8.91625C12.8143 7.64375 13.3999 5.58312 13.3999 5.58312C13.3999 5.58312 11.4043 6.67687 9.93854 6.66687C8.47668 6.65687 6.60729 5.58312 6.60729 5.58312C6.60729 5.58312 7.10027 7.63375 6.66908 8.94875C6.24774 10.2669 4.50521 11.7319 4.50521 11.7319C4.50521 11.7319 6.76504 11.9237 7.87721 12.65C8.99333 13.3756 9.99967 15.5344 9.99967 15.5344C9.99967 15.5344 10.6846 13.575 12.0334 12.6925C13.3822 11.8006 15.5047 11.7325 15.5047 11.7325C15.5047 11.7325 13.7516 10.1994 13.2757 8.92625L13.2764 8.91625ZM11.524 11.9925C10.5689 12.6662 9.99047 13.8156 9.99047 13.8156C9.99047 13.8156 9.32658 12.6244 8.41555 11.9669C7.49466 11.3094 6.16295 11.1594 6.16295 11.1594C6.79686 10.6347 7.26096 9.94954 7.50123 9.18375C7.90548 7.90125 7.65899 6.90813 7.65899 6.90813C7.65899 6.90813 8.46682 7.49062 9.95629 7.49062C11.4458 7.49062 12.4008 6.90813 12.4008 6.90813C12.4008 6.90813 12.0689 8.22625 12.4626 9.1575C12.8498 10.1081 13.839 11.1662 13.839 11.1662C13.839 11.1662 12.4731 11.3094 11.5246 11.9931L11.524 11.9925ZM11.5167 8.00125C11.5167 8.00125 10.6846 8.31687 9.96615 8.3075C9.24705 8.3075 8.47668 8.00125 8.47668 8.00125C8.51809 8.48313 8.47668 8.95812 8.32616 9.4175C8.09018 10.1337 7.52818 10.7844 7.52818 10.7844C8.04098 10.8816 8.52631 11.081 8.95228 11.3694C9.37825 11.6578 9.7352 12.0286 9.99967 12.4575C9.99967 12.4575 10.3934 11.7512 11.0336 11.3506C11.4753 11.088 11.9568 10.8916 12.4613 10.7681C12.4613 10.7681 11.8145 10.1169 11.568 9.45938C11.3248 8.80813 11.5167 8.00125 11.5167 8.00125V8.00125ZM17.1006 10L20 6.9175L15.7479 6.02562L16.1863 1.9075L12.1911 3.57437L10.0003 0L7.80951 3.57437L3.82095 1.9075L4.25214 6.03188L0 6.9075L2.89283 10L0.010517 13.0825L4.25937 13.9744L3.82095 18.0925L7.80951 16.4256L10.0003 20L12.1911 16.4256L16.1863 18.0925L15.7479 13.9744L20 13.0925L17.1072 10H17.1006ZM12.479 13.2913C11.7534 13.7994 10.0003 17.3406 10.0003 17.3406C10.0003 17.3406 8.68571 14.1244 7.37108 13.2913C6.07355 12.4581 2.65685 12.2756 2.65685 12.2756C2.65685 12.2756 5.27558 10.3 5.78565 8.55187C6.3023 6.80062 5.46028 4.07625 5.46028 4.07625C5.46028 4.07625 8.00079 5.82438 9.91093 5.82438C11.8145 5.82438 14.5226 4.07625 14.5226 4.07625C14.5226 4.07625 13.8035 7.82625 14.0573 8.62688C14.3208 9.42438 17.3267 12.2763 17.3267 12.2763C17.3267 12.2763 13.208 12.7938 12.4725 13.2919L12.479 13.2913Z" fill="white"/>
</svg>
