<svg width="24" height="24" viewBox="0 0 24 24" fill="none" xmlns="http://www.w3.org/2000/svg">
<path d="M14.75 1.02534e-06C13.1605 -0.000791296 11.6045 0.457626 10.2694 1.32012C8.93418 2.18262 7.87658 3.41246 7.22377 4.86176C6.57095 6.31105 6.35071 7.91807 6.58954 9.48956C6.82837 11.0611 7.51609 12.5301 8.57 13.72L0.5 22.88L1.62 23.88L9.67 14.76C10.7055 15.5699 11.9195 16.1207 13.2109 16.3665C14.5023 16.6123 15.8338 16.5459 17.0944 16.173C18.355 15.8 19.5082 15.1312 20.458 14.2223C21.4078 13.3134 22.1267 12.1908 22.5548 10.9478C22.9829 9.70486 23.1078 8.3776 22.9191 7.07661C22.7303 5.77561 22.2335 4.53854 21.4699 3.46843C20.7063 2.39832 19.6981 1.52616 18.5292 0.924585C17.3603 0.323011 16.0646 0.0094431 14.75 0.010001V1.02534e-06ZM14.75 15C12.9598 15 11.2429 14.2888 9.97703 13.023C8.71116 11.7571 8 10.0402 8 8.25C8 6.45979 8.71116 4.7429 9.97703 3.47703C11.2429 2.21116 12.9598 1.5 14.75 1.5C16.5402 1.5 18.2571 2.21116 19.523 3.47703C20.7888 4.7429 21.5 6.45979 21.5 8.25C21.5 10.0402 20.7888 11.7571 19.523 13.023C18.2571 14.2888 16.5402 15 14.75 15Z" fill="white"/>
</svg>
